<svg width="275" height="226" viewBox="0 0 275 226" fill="none" xmlns="http://www.w3.org/2000/svg">
<path d="M48.9045 0.000472397C62.1919 7.30018 75.3748 14.7804 88.2672 22.4857C62.3958 12.6095 33.9978 5.50881 2.49613 1.57253C29.3104 14.2019 55.0923 27.8428 80.4205 41.996C59.0578 33.4726 35.93 26.767 10.5943 22.4422C44.0242 38.6647 73.3955 56.6932 99.4317 76.4224C66.506 98.7379 37.953 125.911 14.6943 158.743C30.2613 147.262 46.2246 136.271 62.2786 125.336C35.4534 151.738 14.2693 182.768 0 219.222C11.6911 207.585 23.5361 196.438 35.547 185.75C61.2146 153.852 86.9781 116.217 121.023 105.201C104.02 119.715 84.6404 140.727 64.6059 161.043C88.1432 141.93 112.318 124.431 137.196 108.336C172.567 141.653 200.795 178.941 224.56 219.823C220.691 198.65 214.916 178.52 207.316 159.48L233.986 190.454C233.986 190.454 219.035 156.096 208.915 142.249C232.32 168.675 253.824 196.334 273.416 225.06C262.693 182.779 244.411 144.817 216.63 112.462C236.81 128.972 256.145 146.168 274.586 164.003C255.44 127.854 231.628 96.1822 202.133 70.2712C225.23 58.0356 248.92 46.766 273.257 36.3425C255.402 38.8886 237.757 42.3511 220.426 46.7098C232.965 39.0655 245.927 31.5262 258.912 24.2477C237.1 29.8771 216.057 36.4305 196.284 43.8313C220.785 30.7515 245.851 18.4648 271.509 6.67958H271.507C232.765 15.2134 196.382 26.621 162.981 41.4425C130.656 21.6902 92.9207 7.51193 48.9051 0L48.9045 0.000472397Z" fill="#B41414"/>
</svg>
