<svg width="17" height="17" viewBox="0 0 17 17" fill="none" xmlns="http://www.w3.org/2000/svg">
<path d="M1.83314 1.00001C1.82122 0.999915 1.80942 1.00052 1.79744 1.00102C1.60578 1.00876 1.40892 1.08994 1.24947 1.24876C0.930556 1.56646 0.922946 2.03604 1.19493 2.30693C1.31987 2.43138 1.48699 2.49753 1.66172 2.50141L1.75881 2.40371L2.4614 1.7038L2.50599 1.65939C2.50209 1.48519 2.43568 1.31888 2.31077 1.19449C2.18323 1.06751 2.01196 1.00137 1.83311 1.00004L1.83314 1.00001ZM2.72993 2.27139L2.3207 2.67909C2.75365 3.7292 3.4993 4.45663 4.45922 5.00763L5.0538 4.41537C4.45554 3.46912 3.68189 2.73554 2.72999 2.27143L2.72993 2.27139ZM6.83155 3.4796L3.48903 6.81009L4.24514 7.56326C5.18956 6.28006 6.31951 5.18379 7.59064 4.23574L6.83155 3.4796ZM7.23786 5.26131C6.52541 5.85208 5.86849 6.49564 5.27575 7.20196C6.3556 8.5888 7.69459 9.81659 9.15735 10.7516C8.49593 10.8053 7.87617 10.7919 7.3003 10.7111C8.38323 11.4959 9.55897 12.1531 10.7964 12.6429C9.90101 12.7265 9.06565 12.7139 8.29222 12.6053C10.5924 14.2723 13.2224 15.4858 16 16C15.3471 13.0077 14.1574 10.3636 12.5167 8.13182C12.6298 8.91999 12.6606 9.78466 12.5951 10.7318C12.0853 9.43274 11.4299 8.24203 10.6428 7.17132C10.7269 7.75802 10.7535 8.39855 10.7132 9.09624C9.77331 7.60258 8.60492 6.30909 7.23786 5.26131Z" fill="white"/>
</svg>
