<svg width="24" height="24" viewBox="0 0 24 24" fill="none" xmlns="http://www.w3.org/2000/svg">
<path d="M1.33303 1.59325e-05C1.31395 -0.000135686 1.29508 0.000824543 1.2759 0.00163317C0.969243 0.0140153 0.654265 0.143902 0.399157 0.398014C-0.11111 0.90634 -0.123287 1.65766 0.311888 2.09109C0.511794 2.29021 0.77918 2.39604 1.05874 2.40226L1.2141 2.24594L2.33824 1.12609L2.40958 1.05503C2.40334 0.776302 2.29709 0.510212 2.09724 0.311187C1.89317 0.108019 1.61914 0.0021891 1.33298 6.64442e-05L1.33303 1.59325e-05ZM2.76789 2.03423L2.11312 2.68654C2.80584 4.36673 3.99888 5.5306 5.53475 6.41221L6.48608 5.4646C5.52887 3.95059 4.29103 2.77686 2.76799 2.03428L2.76789 2.03423ZM9.33048 3.96736L3.98244 9.29614L5.19223 10.5012C6.70329 8.44809 8.51122 6.69407 10.545 5.17718L9.33048 3.96736ZM9.98057 6.81809C8.84066 7.76333 7.78958 8.79302 6.84119 9.92314C8.56896 12.1421 10.7113 14.1065 13.0518 15.6025C11.9935 15.6885 11.0019 15.6671 10.0805 15.5378C11.8132 16.7935 13.6944 17.8449 15.6743 18.6286C14.2416 18.7623 12.905 18.7423 11.6675 18.5685C15.3478 21.2356 19.5558 23.1772 24 24C22.9553 19.2122 21.0518 14.9817 18.4268 11.4109C18.6077 12.672 18.657 14.0554 18.5521 15.5709C17.7365 13.4924 16.6878 11.5873 15.4285 9.87411C15.5631 10.8128 15.6056 11.8377 15.5411 12.954C14.0373 10.5641 12.1679 8.49454 9.98057 6.81809Z" fill="white"/>
</svg>
